<svg width="572" height="370" viewBox="0 0 572 370" fill="none" xmlns="http://www.w3.org/2000/svg">
  <path d="M337.974 300L285.617 368.359L232.846 300H337.974Z" fill="#E58200" stroke="black" stroke-width="2"/>
  <path d="M339.511 298H231.302L173.405 223L397.826 223L339.511 298Z" fill="#EA2153" stroke="black" stroke-width="2"/>
  <path d="M399.379 221L171.861 221L116.28 149L454.96 149L399.379 221Z" fill="#DCBF01" stroke="black" stroke-width="2"/>
  <path d="M456.504 147L114.736 147L59.1552 75L512.085 75L456.504 147Z" fill="#1CD1C8" stroke="black" stroke-width="2"/>
  <path d="M513.629 73L57.6114 73L2.03516 1L569.205 1L513.629 73Z" fill="#607DFF" stroke="black" stroke-width="2"/>
  <path d="M237.872 24.456C235.248 28.36 230.096 33.128 224.688 36.296C224.368 35.72 223.696 34.888 223.184 34.376C228.688 31.336 234.032 26.248 236.496 22.088H238.96C242.288 26.824 247.888 31.496 252.912 33.992C252.304 34.6 251.728 35.4 251.312 36.104C246.352 33.256 240.752 28.488 237.872 24.456ZM227.056 41.096H248.88V43.24H227.056V41.096ZM228.496 33.928H247.632V36.104H228.496V33.928ZM224.432 48.52H251.696V50.696H224.432V48.52ZM236.624 34.824H239.152V49.736H236.624V34.824ZM273.2 24.04H282.8V26.312H275.536V51.592H273.2V24.04ZM256.144 25.672H271.44V27.816H256.144V25.672ZM255.312 34.536H271.856V36.744H255.312V34.536ZM262.576 22.248H264.912V26.984H262.576V22.248ZM258.128 28.936L260.144 28.488C260.848 30.088 261.456 32.232 261.648 33.64L259.504 34.152C259.344 32.744 258.8 30.568 258.128 28.936ZM267.312 28.264L269.616 28.808C268.912 30.696 268.144 32.84 267.44 34.248L265.52 33.736C266.16 32.264 266.928 29.896 267.312 28.264ZM258.32 47.592H268.848V49.736H258.32V47.592ZM257.456 39.528H270.064V51.432H267.76V41.672H259.696V51.592H257.456V39.528ZM282.16 24.04H282.64L283.024 23.944L284.784 25.064C283.472 28.072 281.808 31.784 280.336 34.728C283.568 37.704 284.336 40.232 284.368 42.536C284.368 44.488 283.92 45.992 282.8 46.76C282.224 47.112 281.52 47.336 280.688 47.464C279.888 47.56 278.832 47.528 277.904 47.496C277.872 46.824 277.648 45.8 277.232 45.128C278.16 45.192 279.088 45.224 279.728 45.192C280.272 45.16 280.72 45.032 281.104 44.808C281.808 44.392 282.032 43.464 282.032 42.28C282 40.264 281.072 37.864 277.84 35.048C279.472 31.752 281.2 27.336 282.16 24.808V24.04ZM288.688 27.048H302.928V49.096H300.72V29.16H290.8V49.544H288.688V27.048ZM289.68 35.912H301.488V37.992H289.68V35.912ZM289.744 45.32H301.392V47.4H289.744V45.32ZM294.64 22.184H296.976V28.2H296.88V46.792H294.736V28.2H294.64V22.184ZM306.032 23.848H314.416V26.12H308.144V51.528H306.032V23.848ZM313.872 23.848H314.32L314.704 23.752L316.336 24.808C315.184 27.752 313.68 31.4 312.304 34.376C315.248 37.416 315.952 39.944 315.952 42.152C315.952 44.04 315.536 45.576 314.448 46.312C313.936 46.664 313.2 46.856 312.432 46.952C311.632 47.048 310.576 47.048 309.616 46.984C309.552 46.376 309.328 45.384 308.944 44.712C309.904 44.808 310.832 44.808 311.504 44.808C311.984 44.744 312.464 44.68 312.848 44.456C313.52 44.072 313.712 43.048 313.712 41.928C313.712 39.944 312.848 37.576 309.936 34.696C311.44 31.368 313.008 27.08 313.872 24.584V23.848ZM337.328 22.536H339.728V51.56H337.328V22.536ZM331.792 23.752L334.096 24.2C333.232 28.68 331.76 33.064 329.936 35.912C329.456 35.56 328.464 34.984 327.856 34.728C329.712 32.04 331.056 27.912 331.792 23.752ZM332.112 28.68H347.056V31.048H331.504L332.112 28.68ZM328.112 38.088H348.464V40.456H328.112V38.088ZM326.544 22.248L328.816 22.952C326.8 28.36 323.696 33.768 320.368 37.384C320.144 36.84 319.44 35.592 318.992 35.016C322 31.912 324.848 27.112 326.544 22.248ZM323.312 30.504L325.584 28.232L325.616 28.264V51.528H323.312V30.504Z" fill="white"/>
  <path d="M221.872 247.712C219.216 251.744 213.808 256.832 208.112 260.16C207.76 259.616 207.088 258.752 206.544 258.24C212.368 254.944 217.936 249.536 220.464 245.216H222.96C226.448 250.176 232.304 255.136 237.552 257.824C236.944 258.432 236.368 259.264 235.92 259.968C230.704 256.96 224.816 251.904 221.872 247.712ZM220.592 255.712H223.12V274.592H220.592V255.712ZM243.472 245.12H245.904V274.528H243.472V245.12ZM240.528 251.2L242.352 251.488C242.192 254.08 241.616 257.792 240.752 260.096L238.864 259.456C239.728 257.312 240.304 253.792 240.528 251.2ZM246.128 251.008L247.792 250.272C248.784 252 249.776 254.272 250.128 255.648L248.336 256.544C247.984 255.136 247.024 252.8 246.128 251.008ZM252.656 246.624L254.992 247.008C254.16 251.68 252.752 256.224 250.96 259.232C250.48 258.88 249.392 258.368 248.784 258.112C250.672 255.296 251.952 250.944 252.656 246.624ZM252.688 251.904H267.568V254.208H251.952L252.688 251.904ZM257.872 245.248H260.272V272.448H257.872V245.248ZM251.056 260.864H266.864V263.136H251.056V260.864ZM248.656 271.136H268.336V273.44H248.656V271.136ZM285.552 245.92H287.984V269.664C287.984 271.456 288.304 271.84 290.096 271.84C290.96 271.84 295.312 271.84 296.4 271.84C298.16 271.84 298.416 270.656 298.64 265.984C299.248 266.432 300.24 266.88 300.944 267.04C300.56 272.288 299.856 274.112 296.528 274.112C295.696 274.112 290.672 274.112 289.936 274.112C286.576 274.112 285.552 273.152 285.552 269.632V245.92ZM297.552 251.232L299.312 253.28C296.08 255.936 291.376 258.528 287.152 260.736C286.992 260.192 286.512 259.36 286.16 258.848C290.256 256.704 294.832 253.728 297.552 251.232ZM279.984 245.632L282.32 246.4C279.92 252.032 276.08 257.504 272.112 261.056C271.856 260.48 271.12 259.232 270.64 258.656C274.352 255.552 277.872 250.688 279.984 245.632ZM276.336 253.984L278.672 251.648L278.704 251.68V274.528H276.336V253.984ZM304.496 247.232L306.352 246.016C308.144 247.616 310.256 249.856 311.248 251.328L309.264 252.768C308.336 251.232 306.288 248.896 304.496 247.232ZM310.352 257.12V268.768H308.016V259.392H303.568V257.12H310.352ZM309.136 267.52C310.224 267.52 310.96 268.48 312.752 269.568C314.832 270.88 317.552 271.104 321.136 271.104C324.912 271.104 329.744 270.848 332.848 270.496C332.528 271.168 332.144 272.384 332.112 273.12C329.84 273.248 324.144 273.408 321.104 273.408C317.104 273.408 314.416 273.088 312.208 271.68C310.832 270.816 309.808 269.76 309.104 269.76C308.016 269.76 306.48 271.648 304.848 273.824L303.152 271.584C305.36 269.184 307.536 267.52 309.136 267.52ZM312.624 250.912H331.888V253.184H312.624V250.912ZM325.008 245.248H327.472V265.888C327.472 267.52 327.024 268.224 325.872 268.608C324.784 268.992 322.832 269.056 319.792 269.056C319.696 268.352 319.28 267.296 318.928 266.592C321.296 266.656 323.504 266.656 324.144 266.656C324.784 266.592 325.008 266.432 325.008 265.856V245.248ZM314.16 256.736L316.08 255.712C317.712 257.664 319.728 260.32 320.656 261.984L318.64 263.232C317.776 261.536 315.792 258.752 314.16 256.736ZM353.552 247.296H363.248V249.184H353.552V247.296ZM345.584 251.168H362.928V253.056H345.584V251.168ZM352.112 245.152H354.416V252.032H352.112V245.152ZM347.824 256.64L359.28 255.712L359.408 257.44L347.952 258.432L347.824 256.64ZM351.28 253.504H353.392V259.392C353.392 260.128 353.648 260.256 355.024 260.256C355.664 260.256 358.992 260.256 359.856 260.256C360.944 260.256 361.136 259.968 361.264 257.824C361.712 258.176 362.576 258.464 363.152 258.592C362.896 261.44 362.256 262.144 360.08 262.144C359.472 262.144 355.472 262.144 354.864 262.144C351.984 262.144 351.28 261.6 351.28 259.392V253.504ZM344.432 251.168H346.608V257.952C346.608 262.752 346.096 269.888 343.024 274.752C342.672 274.272 341.744 273.504 341.296 273.248C344.112 268.704 344.432 262.4 344.432 257.952V251.168ZM362.48 251.168H362.8L363.152 251.072L364.624 251.488C363.984 253.28 363.216 255.296 362.48 256.576L360.688 256.064C361.328 254.912 362.032 253.056 362.48 251.488V251.168ZM350.896 265.696H352.848V271.424C352.848 272.16 353.072 272.288 354.224 272.288C354.768 272.288 357.616 272.288 358.352 272.288C359.376 272.288 359.568 271.904 359.664 268.928C360.08 269.216 360.88 269.504 361.392 269.632C361.2 273.12 360.624 274.016 358.576 274.016C358.032 274.016 354.576 274.016 354.064 274.016C351.536 274.016 350.896 273.472 350.896 271.424V265.696ZM348.336 265.728L349.936 266.272C349.456 268.448 348.624 271.36 347.472 273.12L345.808 272.416C346.96 270.688 347.856 267.872 348.336 265.728ZM353.68 264.32L355.184 263.52C356.464 264.992 357.904 267.04 358.48 268.352L356.912 269.312C356.336 267.936 354.928 265.856 353.68 264.32ZM359.696 265.696L361.232 264.992C362.8 267.168 364.4 270.016 364.944 271.904L363.28 272.672C362.768 270.816 361.232 267.872 359.696 265.696ZM336.816 247.456L338.256 245.984C340.016 247.04 342.256 248.608 343.344 249.696L341.84 251.36C340.784 250.24 338.608 248.576 336.816 247.456ZM335.312 256L336.688 254.496C338.48 255.392 340.816 256.8 341.936 257.824L340.56 259.552C339.408 258.496 337.168 257.024 335.312 256ZM335.984 272.32C337.36 269.952 339.312 265.888 340.72 262.4L342.576 263.712C341.264 266.944 339.536 270.784 338.064 273.664L335.984 272.32Z" fill="white"/>
  <path d="M213.032 325.192L214.632 323.784C217.032 324.904 219.976 326.696 221.416 328.04L219.72 329.608C218.344 328.264 215.432 326.376 213.032 325.192ZM227.816 320.84H228.296L228.712 320.712L230.28 321.672C226.12 329.128 216.648 333.608 208.2 335.464C207.976 334.856 207.496 333.864 207.048 333.352C215.112 331.848 224.328 327.528 227.816 321.224V320.84ZM217.128 320.84H228.424V322.856H217.128V320.84ZM219.496 318.088L222.184 318.664C219.24 322.056 214.888 325.224 208.936 327.592C208.584 327.016 207.848 326.216 207.304 325.8C213.064 323.784 217.288 320.776 219.496 318.088ZM217.128 336.936L218.888 335.56C221.416 336.872 224.488 338.888 226.024 340.424L224.136 341.96C222.696 340.456 219.656 338.312 217.128 336.936ZM232.488 332.04H232.968L233.416 331.912L234.984 332.776C230.952 342.12 220.968 346.12 210.504 347.656C210.344 346.984 209.864 345.992 209.48 345.448C219.368 344.264 229.032 340.456 232.488 332.392V332.04ZM222.088 332.04H233.128V334.088H222.088V332.04ZM224.68 329.032L227.336 329.64C224.104 333.416 219.048 336.904 212.04 339.368C211.752 338.824 211.048 337.96 210.536 337.512C217.32 335.4 222.184 332.072 224.68 329.032ZM248.52 320.776H267.208V322.824H248.52V320.776ZM247.848 338.44H267.176V340.456H247.848V338.44ZM253.224 318.152H255.496V325.256H253.224V318.152ZM260.392 318.152H262.728V325.256H260.392V318.152ZM252.072 331.656V333.96H263.24V331.656H252.072ZM252.072 327.656V329.928H263.24V327.656H252.072ZM249.832 325.864H265.544V335.784H249.832V325.864ZM256.392 335.464H258.76C258.088 341.768 256.232 345.64 248.232 347.592C248.04 347.048 247.432 346.152 246.984 345.672C254.344 344.072 255.848 340.776 256.392 335.464ZM259.304 339.112C260.616 342.408 263.688 344.712 267.912 345.576C267.4 346.056 266.728 346.952 266.408 347.56C261.896 346.344 258.76 343.624 257.256 339.56L259.304 339.112ZM238.6 324.328H248.2V326.536H238.6V324.328ZM242.568 318.12H244.872V347.528H242.568V318.12ZM242.728 325.768L244.232 326.248C243.304 331.4 241.384 337.768 239.272 341.032C239.016 340.36 238.408 339.304 237.992 338.728C240.008 335.848 241.928 330.248 242.728 325.768ZM244.776 327.688C245.48 328.68 248.104 333.064 248.68 334.12L247.176 335.88C246.472 334.152 244.392 330.024 243.56 328.648L244.776 327.688ZM281.832 323.56H297.128V334.12H294.888V325.832H281.832V323.56ZM280.872 332.872H299.4V335.176H280.872V332.872ZM290.888 333.736C292.264 339.24 295.24 343.56 299.944 345.512C299.4 346.024 298.664 346.984 298.28 347.624C293.32 345.256 290.376 340.488 288.808 334.184L290.888 333.736ZM287.656 318.472H289.96V329.384C289.96 336.296 288.904 343.144 279.848 347.624C279.56 347.08 278.792 346.216 278.248 345.8C286.728 341.704 287.656 335.56 287.656 329.384V318.472ZM270.664 325.832H280.328V328.104H270.664V325.832ZM274.504 318.504H276.776V339.272H274.504V318.504ZM270.12 339.816C272.68 338.888 276.552 337.224 280.296 335.624L280.84 337.768C277.448 339.368 273.864 340.968 271.08 342.216L270.12 339.816ZM303.496 320.232L305.352 319.016C307.144 320.616 309.256 322.856 310.248 324.328L308.264 325.768C307.336 324.232 305.288 321.896 303.496 320.232ZM309.352 330.12V341.768H307.016V332.392H302.568V330.12H309.352ZM308.136 340.52C309.224 340.52 309.96 341.48 311.752 342.568C313.832 343.88 316.552 344.104 320.136 344.104C323.912 344.104 328.744 343.848 331.848 343.496C331.528 344.168 331.144 345.384 331.112 346.12C328.84 346.248 323.144 346.408 320.104 346.408C316.104 346.408 313.416 346.088 311.208 344.68C309.832 343.816 308.808 342.76 308.104 342.76C307.016 342.76 305.48 344.648 303.848 346.824L302.152 344.584C304.36 342.184 306.536 340.52 308.136 340.52ZM311.624 323.912H330.888V326.184H311.624V323.912ZM324.008 318.248H326.472V338.888C326.472 340.52 326.024 341.224 324.872 341.608C323.784 341.992 321.832 342.056 318.792 342.056C318.696 341.352 318.28 340.296 317.928 339.592C320.296 339.656 322.504 339.656 323.144 339.656C323.784 339.592 324.008 339.432 324.008 338.856V318.248ZM313.16 329.736L315.08 328.712C316.712 330.664 318.728 333.32 319.656 334.984L317.64 336.232C316.776 334.536 314.792 331.752 313.16 329.736ZM352.552 320.296H362.248V322.184H352.552V320.296ZM344.584 324.168H361.928V326.056H344.584V324.168ZM351.112 318.152H353.416V325.032H351.112V318.152ZM346.824 329.64L358.28 328.712L358.408 330.44L346.952 331.432L346.824 329.64ZM350.28 326.504H352.392V332.392C352.392 333.128 352.648 333.256 354.024 333.256C354.664 333.256 357.992 333.256 358.856 333.256C359.944 333.256 360.136 332.968 360.264 330.824C360.712 331.176 361.576 331.464 362.152 331.592C361.896 334.44 361.256 335.144 359.08 335.144C358.472 335.144 354.472 335.144 353.864 335.144C350.984 335.144 350.28 334.6 350.28 332.392V326.504ZM343.432 324.168H345.608V330.952C345.608 335.752 345.096 342.888 342.024 347.752C341.672 347.272 340.744 346.504 340.296 346.248C343.112 341.704 343.432 335.4 343.432 330.952V324.168ZM361.48 324.168H361.8L362.152 324.072L363.624 324.488C362.984 326.28 362.216 328.296 361.48 329.576L359.688 329.064C360.328 327.912 361.032 326.056 361.48 324.488V324.168ZM349.896 338.696H351.848V344.424C351.848 345.16 352.072 345.288 353.224 345.288C353.768 345.288 356.616 345.288 357.352 345.288C358.376 345.288 358.568 344.904 358.664 341.928C359.08 342.216 359.88 342.504 360.392 342.632C360.2 346.12 359.624 347.016 357.576 347.016C357.032 347.016 353.576 347.016 353.064 347.016C350.536 347.016 349.896 346.472 349.896 344.424V338.696ZM347.336 338.728L348.936 339.272C348.456 341.448 347.624 344.36 346.472 346.12L344.808 345.416C345.96 343.688 346.856 340.872 347.336 338.728ZM352.68 337.32L354.184 336.52C355.464 337.992 356.904 340.04 357.48 341.352L355.912 342.312C355.336 340.936 353.928 338.856 352.68 337.32ZM358.696 338.696L360.232 337.992C361.8 340.168 363.4 343.016 363.944 344.904L362.28 345.672C361.768 343.816 360.232 340.872 358.696 338.696ZM335.816 320.456L337.256 318.984C339.016 320.04 341.256 321.608 342.344 322.696L340.84 324.36C339.784 323.24 337.608 321.576 335.816 320.456ZM334.312 329L335.688 327.496C337.48 328.392 339.816 329.8 340.936 330.824L339.56 332.552C338.408 331.496 336.168 330.024 334.312 329ZM334.984 345.32C336.36 342.952 338.312 338.888 339.72 335.4L341.576 336.712C340.264 339.944 338.536 343.784 337.064 346.664L334.984 345.32Z" fill="white"/>
  <path d="M207.984 179.336H236.112V181.768H207.984V179.336ZM223.568 180.296C225.648 188.04 230 194.504 236.656 197.256C236.048 197.8 235.248 198.824 234.832 199.496C227.92 196.232 223.568 189.48 221.168 180.872L223.568 180.296ZM220.752 170.152H223.344C223.216 178.536 223.152 193.128 209.168 199.528C208.784 198.888 208.016 198.024 207.344 197.544C220.944 191.624 220.688 177.832 220.752 170.152ZM249.52 172.776H268.208V174.824H249.52V172.776ZM248.848 190.44H268.176V192.456H248.848V190.44ZM254.224 170.152H256.496V177.256H254.224V170.152ZM261.392 170.152H263.728V177.256H261.392V170.152ZM253.072 183.656V185.96H264.24V183.656H253.072ZM253.072 179.656V181.928H264.24V179.656H253.072ZM250.832 177.864H266.544V187.784H250.832V177.864ZM257.392 187.464H259.76C259.088 193.768 257.232 197.64 249.232 199.592C249.04 199.048 248.432 198.152 247.984 197.672C255.344 196.072 256.848 192.776 257.392 187.464ZM260.304 191.112C261.616 194.408 264.688 196.712 268.912 197.576C268.4 198.056 267.728 198.952 267.408 199.56C262.896 198.344 259.76 195.624 258.256 191.56L260.304 191.112ZM239.6 176.328H249.2V178.536H239.6V176.328ZM243.568 170.12H245.872V199.528H243.568V170.12ZM243.728 177.768L245.232 178.248C244.304 183.4 242.384 189.768 240.272 193.032C240.016 192.36 239.408 191.304 238.992 190.728C241.008 187.848 242.928 182.248 243.728 177.768ZM245.776 179.688C246.48 180.68 249.104 185.064 249.68 186.12L248.176 187.88C247.472 186.152 245.392 182.024 244.56 180.648L245.776 179.688ZM273.2 171.432H287.632V173.576H273.2V171.432ZM272.144 177.992H288.336V180.136H272.144V177.992ZM271.504 196.232H300.464V198.472H271.504V196.232ZM274.832 189.96H297.104V192.136H274.832V189.96ZM282.416 172.328H284.656V186.984H282.416V172.328ZM284.944 186.376H287.376V197.768H284.944V186.376ZM290.32 171.976H292.528V182.696H290.32V171.976ZM296.272 170.344H298.576V184.648C298.576 185.992 298.288 186.6 297.328 186.984C296.368 187.336 294.832 187.368 292.528 187.368C292.432 186.728 292.08 185.832 291.728 185.192C293.584 185.256 295.152 185.256 295.664 185.192C296.144 185.192 296.272 185.064 296.272 184.616V170.344ZM276.208 172.36H278.448V177.8C278.448 181.128 277.616 185.224 273.456 187.816C273.136 187.336 272.304 186.472 271.856 186.12C275.696 183.784 276.208 180.52 276.208 177.736V172.36ZM304.496 172.232L306.352 171.016C308.144 172.616 310.256 174.856 311.248 176.328L309.264 177.768C308.336 176.232 306.288 173.896 304.496 172.232ZM310.352 182.12V193.768H308.016V184.392H303.568V182.12H310.352ZM309.136 192.52C310.224 192.52 310.96 193.48 312.752 194.568C314.832 195.88 317.552 196.104 321.136 196.104C324.912 196.104 329.744 195.848 332.848 195.496C332.528 196.168 332.144 197.384 332.112 198.12C329.84 198.248 324.144 198.408 321.104 198.408C317.104 198.408 314.416 198.088 312.208 196.68C310.832 195.816 309.808 194.76 309.104 194.76C308.016 194.76 306.48 196.648 304.848 198.824L303.152 196.584C305.36 194.184 307.536 192.52 309.136 192.52ZM312.624 175.912H331.888V178.184H312.624V175.912ZM325.008 170.248H327.472V190.888C327.472 192.52 327.024 193.224 325.872 193.608C324.784 193.992 322.832 194.056 319.792 194.056C319.696 193.352 319.28 192.296 318.928 191.592C321.296 191.656 323.504 191.656 324.144 191.656C324.784 191.592 325.008 191.432 325.008 190.856V170.248ZM314.16 181.736L316.08 180.712C317.712 182.664 319.728 185.32 320.656 186.984L318.64 188.232C317.776 186.536 315.792 183.752 314.16 181.736ZM353.552 172.296H363.248V174.184H353.552V172.296ZM345.584 176.168H362.928V178.056H345.584V176.168ZM352.112 170.152H354.416V177.032H352.112V170.152ZM347.824 181.64L359.28 180.712L359.408 182.44L347.952 183.432L347.824 181.64ZM351.28 178.504H353.392V184.392C353.392 185.128 353.648 185.256 355.024 185.256C355.664 185.256 358.992 185.256 359.856 185.256C360.944 185.256 361.136 184.968 361.264 182.824C361.712 183.176 362.576 183.464 363.152 183.592C362.896 186.44 362.256 187.144 360.08 187.144C359.472 187.144 355.472 187.144 354.864 187.144C351.984 187.144 351.28 186.6 351.28 184.392V178.504ZM344.432 176.168H346.608V182.952C346.608 187.752 346.096 194.888 343.024 199.752C342.672 199.272 341.744 198.504 341.296 198.248C344.112 193.704 344.432 187.4 344.432 182.952V176.168ZM362.48 176.168H362.8L363.152 176.072L364.624 176.488C363.984 178.28 363.216 180.296 362.48 181.576L360.688 181.064C361.328 179.912 362.032 178.056 362.48 176.488V176.168ZM350.896 190.696H352.848V196.424C352.848 197.16 353.072 197.288 354.224 197.288C354.768 197.288 357.616 197.288 358.352 197.288C359.376 197.288 359.568 196.904 359.664 193.928C360.08 194.216 360.88 194.504 361.392 194.632C361.2 198.12 360.624 199.016 358.576 199.016C358.032 199.016 354.576 199.016 354.064 199.016C351.536 199.016 350.896 198.472 350.896 196.424V190.696ZM348.336 190.728L349.936 191.272C349.456 193.448 348.624 196.36 347.472 198.12L345.808 197.416C346.96 195.688 347.856 192.872 348.336 190.728ZM353.68 189.32L355.184 188.52C356.464 189.992 357.904 192.04 358.48 193.352L356.912 194.312C356.336 192.936 354.928 190.856 353.68 189.32ZM359.696 190.696L361.232 189.992C362.8 192.168 364.4 195.016 364.944 196.904L363.28 197.672C362.768 195.816 361.232 192.872 359.696 190.696ZM336.816 172.456L338.256 170.984C340.016 172.04 342.256 173.608 343.344 174.696L341.84 176.36C340.784 175.24 338.608 173.576 336.816 172.456ZM335.312 181L336.688 179.496C338.48 180.392 340.816 181.8 341.936 182.824L340.56 184.552C339.408 183.496 337.168 182.024 335.312 181ZM335.984 197.32C337.36 194.952 339.312 190.888 340.72 187.4L342.576 188.712C341.264 191.944 339.536 195.784 338.064 198.664L335.984 197.32Z" fill="white"/>
  <path d="M164.048 101.464H175.312V103.704H164.048V101.464ZM163.344 108.856H175.696V111.16H163.344V108.856ZM168.624 96.472H170.928V106.84C170.928 112.472 170.448 120.312 164.848 125.24C164.528 124.76 163.728 123.96 163.152 123.576C168.432 119.224 168.624 111.832 168.624 106.872V96.472ZM170.384 112.696C171.44 113.688 175.056 118.04 175.888 119.064L174.224 120.856C173.168 119.16 170.128 115.224 168.912 113.816L170.384 112.696ZM177.2 97.688H190.736V114.712H188.368V99.8H179.536V114.712H177.2V97.688ZM183.92 113.752H186.064V121.912C186.064 122.776 186.352 122.968 187.12 122.968H189.392C190.416 122.968 190.608 122.136 190.736 117.72C191.28 118.168 192.112 118.488 192.688 118.616C192.432 123.64 192.048 124.888 189.424 124.888H186.832C184.752 124.888 183.92 124.312 183.92 122.168V113.752ZM182.864 102.552H185.104V108.728C185.104 114.2 183.664 121.208 175.248 125.528C174.992 125.08 174.224 124.184 173.744 123.8C181.84 119.672 182.864 113.624 182.864 108.696V102.552ZM204.304 119.352L205.776 117.88C207.76 119.416 210.352 121.624 211.632 123.032L210.096 124.792C208.848 123.352 206.32 120.984 204.304 119.352ZM197.296 97.848H211.088V117.208H208.752V100.024H199.536V117.272H197.296V97.848ZM220.688 96.376H223.024V122.168C223.024 123.832 222.608 124.536 221.584 124.952C220.528 125.336 218.736 125.4 215.792 125.4C215.664 124.728 215.28 123.64 214.896 122.968C217.2 123.032 219.216 123 219.824 123C220.432 122.968 220.688 122.776 220.688 122.168V96.376ZM214.704 99.032H216.976V118.2H214.704V99.032ZM202.96 102.232H205.232V111.352C205.232 116.28 204.08 122.104 196.88 125.624C196.656 125.112 195.888 124.184 195.408 123.832C202.128 120.504 202.96 115.704 202.96 111.32V102.232ZM235.045 123.318C233.515 123.318 232.197 123.038 231.091 122.477C229.985 121.917 229.133 121.148 228.534 120.17C227.936 119.193 227.636 118.076 227.636 116.818C227.636 115.848 227.841 114.989 228.25 114.239C228.667 113.481 229.239 112.78 229.966 112.136C230.701 111.485 231.545 110.833 232.5 110.182L235.864 107.682C236.523 107.25 237.049 106.788 237.443 106.295C237.845 105.803 238.045 105.159 238.045 104.364C238.045 103.773 237.784 103.201 237.261 102.648C236.746 102.095 236.068 101.818 235.227 101.818C234.636 101.818 234.114 101.97 233.659 102.273C233.212 102.568 232.86 102.947 232.602 103.409C232.352 103.864 232.227 104.333 232.227 104.818C232.227 105.364 232.375 105.917 232.67 106.477C232.973 107.03 233.356 107.598 233.818 108.182C234.288 108.758 234.773 109.348 235.273 109.955L245.955 123H242.727L233.909 112.364C233.091 111.379 232.348 110.485 231.682 109.682C231.015 108.879 230.485 108.087 230.091 107.307C229.697 106.527 229.5 105.682 229.5 104.773C229.5 103.727 229.731 102.811 230.193 102.023C230.663 101.227 231.318 100.61 232.159 100.17C233.008 99.7235 234 99.5 235.136 99.5C236.303 99.5 237.307 99.7273 238.148 100.182C238.989 100.629 239.636 101.223 240.091 101.966C240.545 102.701 240.773 103.5 240.773 104.364C240.773 105.477 240.496 106.443 239.943 107.261C239.39 108.08 238.636 108.841 237.682 109.545L233.045 113C232 113.773 231.292 114.523 230.92 115.25C230.549 115.977 230.364 116.5 230.364 116.818C230.364 117.545 230.553 118.223 230.932 118.852C231.311 119.481 231.845 119.989 232.534 120.375C233.223 120.761 234.03 120.955 234.955 120.955C235.833 120.955 236.689 120.769 237.523 120.398C238.356 120.019 239.11 119.473 239.784 118.761C240.466 118.049 241.004 117.193 241.398 116.193C241.799 115.193 242 114.068 242 112.818H244.591C244.591 114.364 244.413 115.625 244.057 116.602C243.701 117.58 243.299 118.345 242.852 118.898C242.405 119.451 242.045 119.864 241.773 120.136C241.682 120.25 241.598 120.364 241.523 120.477C241.447 120.591 241.364 120.705 241.273 120.818C240.523 121.659 239.576 122.288 238.432 122.705C237.288 123.114 236.159 123.318 235.045 123.318ZM253.029 103.352H271.845V105.656H253.029V103.352ZM251.845 111.16H273.157V113.432H251.845V111.16ZM263.621 111.928C265.093 117.56 268.389 121.752 273.893 123.448C273.317 123.96 272.613 124.92 272.261 125.56C266.533 123.48 263.205 118.872 261.541 112.376L263.621 111.928ZM268.357 96.184L270.853 97.048C269.701 99.096 268.293 101.464 267.173 102.968L265.221 102.168C266.277 100.568 267.621 97.976 268.357 96.184ZM254.341 97.496L256.293 96.504C257.637 98.136 259.045 100.408 259.621 101.912L257.541 103.064C256.997 101.528 255.621 99.192 254.341 97.496ZM261.029 103.896H263.525V110.552C263.525 115.48 262.341 121.592 252.517 125.688C252.165 125.112 251.429 124.28 250.853 123.8C260.389 120.184 261.029 114.68 261.029 110.552V103.896ZM283.461 96.056L285.541 96.6C284.485 100.248 282.725 103.96 280.677 106.392C280.421 105.944 279.717 104.92 279.301 104.472C281.093 102.36 282.597 99.256 283.461 96.056ZM282.885 99.736H289.157V101.912H282.437L282.885 99.736ZM283.429 125.176L283.045 123.128L283.717 122.168L288.933 118.712C289.093 119.288 289.413 120.12 289.637 120.536C284.645 123.992 283.877 124.6 283.429 125.176ZM281.285 105.496H289.029V107.608H281.285V105.496ZM280.069 111.928H289.317V114.136H280.069V111.928ZM283.429 125.176C283.205 124.696 282.533 123.832 282.117 123.416C282.693 123 283.749 121.848 283.749 120.376V106.488H285.765V122.328C285.765 122.328 283.429 124.312 283.429 125.176ZM300.741 96.216H302.661V122.008H300.741V96.216ZM296.165 102.968H309.317V104.856H296.165V102.968ZM296.037 116.152H308.613V118.04H296.037V116.152ZM296.869 111.672H307.877V113.56H296.869V111.672ZM289.733 98.008H294.693V100.248H289.733V98.008ZM294.181 107.384H294.565L294.917 107.32L296.101 107.48C295.461 117.4 293.189 122.776 288.933 125.752C288.645 125.24 288.133 124.472 287.685 124.056C291.461 121.656 293.637 116.344 294.181 107.8V107.384ZM291.557 112.344C293.701 121.496 298.885 123.064 304.517 123.096C305.317 123.096 308.293 123.096 309.317 123.064C309.029 123.576 308.709 124.536 308.613 125.112H304.421C297.893 125.112 292.485 123.256 289.893 112.984L291.557 112.344ZM296.965 98.68H307.365V109.208H296.965V107.448H305.605V100.44H296.965V98.68ZM291.013 107.384H294.725V109.4H290.373L291.013 107.384ZM290.213 109.976C290.021 109.528 289.509 108.696 289.221 108.28C289.733 108.184 290.469 107.288 291.013 106.296C291.557 105.368 293.317 101.624 294.213 98.2V98.04L295.013 97.688L296.357 98.552C295.045 102.36 293.349 106.2 291.781 108.792V108.824C291.781 108.824 290.213 109.528 290.213 109.976ZM313.893 98.648L315.397 97.144C317.157 98.584 319.333 100.568 320.357 101.912L318.757 103.576C317.733 102.232 315.621 100.12 313.893 98.648ZM316.325 124.696L315.941 122.456L316.613 121.432L322.277 117.432C322.469 118.04 322.789 119 323.013 119.448C317.605 123.416 316.805 124.056 316.325 124.696ZM311.941 106.168H317.861V108.504H311.941V106.168ZM322.245 97.752H338.565V99.96H322.245V97.752ZM323.045 103.16H335.365V105.24H323.045V103.16ZM324.293 108.472H326.437V120.856H324.293V108.472ZM325.637 108.472H333.797V118.712H325.637V116.632H331.653V110.584H325.637V108.472ZM337.669 97.752H339.973V122.488C339.973 123.992 339.653 124.728 338.629 125.144C337.669 125.528 335.941 125.56 333.317 125.56C333.189 124.92 332.837 123.8 332.485 123.16C334.469 123.256 336.357 123.224 336.933 123.192C337.477 123.192 337.669 123 337.669 122.456V97.752ZM316.325 124.696C316.069 124.216 315.365 123.416 314.981 123.032C315.557 122.552 316.709 121.4 316.709 119.768V106.168H318.981V121.464C318.981 121.464 316.325 123.768 316.325 124.696ZM344.965 98.232L346.821 97.016C348.613 98.616 350.725 100.856 351.717 102.328L349.733 103.768C348.805 102.232 346.757 99.896 344.965 98.232ZM350.821 108.12V119.768H348.485V110.392H344.037V108.12H350.821ZM349.605 118.52C350.693 118.52 351.429 119.48 353.221 120.568C355.301 121.88 358.021 122.104 361.605 122.104C365.381 122.104 370.213 121.848 373.317 121.496C372.997 122.168 372.613 123.384 372.581 124.12C370.309 124.248 364.613 124.408 361.573 124.408C357.573 124.408 354.885 124.088 352.677 122.68C351.301 121.816 350.277 120.76 349.573 120.76C348.485 120.76 346.949 122.648 345.317 124.824L343.621 122.584C345.829 120.184 348.005 118.52 349.605 118.52ZM353.093 101.912H372.357V104.184H353.093V101.912ZM365.477 96.248H367.941V116.888C367.941 118.52 367.493 119.224 366.341 119.608C365.253 119.992 363.301 120.056 360.261 120.056C360.165 119.352 359.749 118.296 359.397 117.592C361.765 117.656 363.973 117.656 364.613 117.656C365.253 117.592 365.477 117.432 365.477 116.856V96.248ZM354.629 107.736L356.549 106.712C358.181 108.664 360.197 111.32 361.125 112.984L359.109 114.232C358.245 112.536 356.261 109.752 354.629 107.736ZM394.021 98.296H403.717V100.184H394.021V98.296ZM386.053 102.168H403.397V104.056H386.053V102.168ZM392.581 96.152H394.885V103.032H392.581V96.152ZM388.293 107.64L399.749 106.712L399.877 108.44L388.421 109.432L388.293 107.64ZM391.749 104.504H393.861V110.392C393.861 111.128 394.117 111.256 395.493 111.256C396.133 111.256 399.461 111.256 400.325 111.256C401.413 111.256 401.605 110.968 401.733 108.824C402.181 109.176 403.045 109.464 403.621 109.592C403.365 112.44 402.725 113.144 400.549 113.144C399.941 113.144 395.941 113.144 395.333 113.144C392.453 113.144 391.749 112.6 391.749 110.392V104.504ZM384.901 102.168H387.077V108.952C387.077 113.752 386.565 120.888 383.493 125.752C383.141 125.272 382.213 124.504 381.765 124.248C384.581 119.704 384.901 113.4 384.901 108.952V102.168ZM402.949 102.168H403.269L403.621 102.072L405.093 102.488C404.453 104.28 403.685 106.296 402.949 107.576L401.157 107.064C401.797 105.912 402.501 104.056 402.949 102.488V102.168ZM391.365 116.696H393.317V122.424C393.317 123.16 393.541 123.288 394.693 123.288C395.237 123.288 398.085 123.288 398.821 123.288C399.845 123.288 400.037 122.904 400.133 119.928C400.549 120.216 401.349 120.504 401.861 120.632C401.669 124.12 401.093 125.016 399.045 125.016C398.501 125.016 395.045 125.016 394.533 125.016C392.005 125.016 391.365 124.472 391.365 122.424V116.696ZM388.805 116.728L390.405 117.272C389.925 119.448 389.093 122.36 387.941 124.12L386.277 123.416C387.429 121.688 388.325 118.872 388.805 116.728ZM394.149 115.32L395.653 114.52C396.933 115.992 398.373 118.04 398.949 119.352L397.381 120.312C396.805 118.936 395.397 116.856 394.149 115.32ZM400.165 116.696L401.701 115.992C403.269 118.168 404.869 121.016 405.413 122.904L403.749 123.672C403.237 121.816 401.701 118.872 400.165 116.696ZM377.285 98.456L378.725 96.984C380.485 98.04 382.725 99.608 383.813 100.696L382.309 102.36C381.253 101.24 379.077 99.576 377.285 98.456ZM375.781 107L377.157 105.496C378.949 106.392 381.285 107.8 382.405 108.824L381.029 110.552C379.877 109.496 377.637 108.024 375.781 107ZM376.453 123.32C377.829 120.952 379.781 116.888 381.189 113.4L383.045 114.712C381.733 117.944 380.005 121.784 378.533 124.664L376.453 123.32Z" fill="white"/>
  </svg>
  